<?xml version="1.0" encoding="UTF-8" standalone="no"?>
<svg
   version="1.0"
   width="330.000000pt"
   height="150.000000pt"
   viewBox="0 0 330.000000 150.000000"
   preserveAspectRatio="xMidYMid meet"
   id="svg68"
   sodipodi:docname="logo.svg"
   inkscape:version="1.2.1 (9c6d41e410, 2022-07-14)"
   xmlns:inkscape="http://www.inkscape.org/namespaces/inkscape"
   xmlns:sodipodi="http://sodipodi.sourceforge.net/DTD/sodipodi-0.dtd"
   xmlns="http://www.w3.org/2000/svg"
   xmlns:svg="http://www.w3.org/2000/svg">
  <defs
     id="defs72" />
  <sodipodi:namedview
     id="namedview70"
     pagecolor="#ffffff"
     bordercolor="#000000"
     borderopacity="0.25"
     inkscape:showpageshadow="2"
     inkscape:pageopacity="0.0"
     inkscape:pagecheckerboard="0"
     inkscape:deskcolor="#d1d1d1"
     inkscape:document-units="pt"
     showgrid="false"
     inkscape:zoom="3.0636364"
     inkscape:cx="203.84273"
     inkscape:cy="118.48665"
     inkscape:window-width="1920"
     inkscape:window-height="1017"
     inkscape:window-x="1912"
     inkscape:window-y="134"
     inkscape:window-maximized="1"
     inkscape:current-layer="g66" />
  <g
     transform="translate(0.000000,150.000000) scale(0.100000,-0.100000)"
     fill="#000000"
     stroke="none"
     id="g66">
    <path
       d="M2667 1222 c-34 -37 -15 -82 33 -82 51 0 69 55 28 84 -29 21 -41 20 -61 -2z"
       id="path38"
       style="fill:#0d6efd;fill-opacity:1" />
    <path
       d="M730 1208 c-56 -13 -140 -66 -174 -110 -14 -19 -36 -56 -48 -84 -22 -46 -23 -60 -20 -219 5 -291 17 -323 25 -71 10 265 19 298 102 374 95 87 25 82 1082 82 926 0 933 0 933 20 0 20 -6 20 -927 19 -573 -1 -945 -5 -973 -11z"
       id="path40"
       style="fill:#0d6efd;fill-opacity:1" />
    <path
       d="M2697 1113 c-4 -3 -7 -115 -7 -248 0 -186 -3 -253 -15 -292 -20 -68 -88 -143 -157 -174 -52 -23 -60 -24 -488 -30 -239 -4 -601 -8 -805 -10 l-370 -2 400 -7 c220 -4 582 -9 805 -11 358 -3 410 -1 448 14 99 38 164 104 202 206 18 46 20 77 20 306 0 206 -3 255 -13 255 -8 0 -17 -3 -20 -7z"
       id="path42"
       style="fill:#0d6efd;fill-opacity:1" />
    <path
       d="M1451 861 c-12 -12 -21 -25 -21 -30 0 -19 38 -54 71 -65 27 -9 34 -16 34 -36 0 -21 -5 -26 -33 -28 -18 -2 -40 2 -48 9 -8 6 -18 9 -22 5 -11 -12 29 -36 61 -36 40 0 67 17 67 43 0 33 -11 44 -63 66 -52 22 -61 45 -23 62 17 8 29 8 46 -1 12 -6 24 -9 28 -6 10 10 -12 25 -45 32 -24 5 -36 1 -52 -15z"
       id="path44"
       style="fill:#0d6efd;fill-opacity:1" />
    <path
       d="M2334 864 c-90 -44 -59 -184 41 -184 99 0 133 140 45 185 -36 19 -47 19 -86 -1z m97 -33 c33 -33 35 -50 14 -90 -25 -49 -87 -57 -125 -16 -73 78 35 181 111 106z"
       id="path46"
       style="fill:#0d6efd;fill-opacity:1" />
    <path
       d="M750 781 c0 -50 5 -93 10 -96 6 -4 10 28 10 89 0 57 -4 96 -10 96 -6 0 -10 -36 -10 -89z"
       id="path48"
       style="fill:#0d6efd;fill-opacity:1" />
    <path
       d="M820 773 c0 -110 17 -119 22 -11 l3 67 60 -74 c33 -41 63 -74 68 -75 4 0 7 43 7 95 0 111 -18 130 -22 23 l-3 -73 -59 73 c-33 39 -64 72 -68 72 -4 0 -8 -44 -8 -97z"
       id="path50"
       style="fill:#0d6efd;fill-opacity:1" />
    <path
       d="M1034 853 c36 -96 71 -172 77 -166 7 8 79 170 79 179 0 2 -4 4 -9 4 -5 0 -22 -31 -37 -70 -15 -38 -31 -70 -35 -70 -4 0 -20 32 -35 70 -15 39 -31 70 -37 70 -5 0 -6 -8 -3 -17z"
       id="path52"
       style="fill:#0d6efd;fill-opacity:1" />
    <path
       d="M1242 778 l3 -93 68 -3 c42 -2 67 1 67 8 0 6 -25 10 -60 10 l-60 0 0 35 0 35 50 0 c28 0 50 5 50 10 0 6 -22 10 -50 10 -49 0 -50 1 -50 30 0 30 1 30 54 30 30 0 58 5 61 10 4 6 -20 10 -65 10 l-71 0 3 -92z"
       id="path54"
       style="fill:#0d6efd;fill-opacity:1" />
    <path
       d="M1615 860 c3 -5 19 -10 36 -10 l29 0 0 -85 c0 -50 4 -85 10 -85 6 0 10 35 10 85 l0 85 29 0 c17 0 33 5 36 10 4 6 -23 10 -75 10 -52 0 -79 -4 -75 -10z"
       id="path56"
       style="fill:#0d6efd;fill-opacity:1" />
    <path
       d="M1880 781 c0 -50 5 -93 10 -96 6 -4 10 22 10 72 l1 78 42 -50 c23 -27 54 -63 69 -80 l27 -30 -1 100 c-2 87 -2 90 -5 28 -2 -40 -7 -73 -11 -73 -5 0 -34 32 -66 70 -31 39 -61 70 -67 70 -5 0 -9 -40 -9 -89z"
       id="path60"
       style="fill:#0d6efd;fill-opacity:1" />
    <path
       d="M2090 781 c0 -50 5 -93 10 -96 6 -4 10 12 10 39 l0 46 50 0 c28 0 50 5 50 10 0 6 -22 10 -50 10 -49 0 -50 1 -50 30 0 30 1 30 54 30 30 0 58 5 61 10 4 6 -20 10 -64 10 l-71 0 0 -89z"
       id="path62"
       style="fill:#0d6efd;fill-opacity:1" />
    <path
       d="M483 364 c-8 -21 13 -42 28 -27 13 13 5 43 -11 43 -6 0 -13 -7 -17 -16z"
       id="path64"
       style="fill:#0d6efd;fill-opacity:1" />
    <path
       d="m 1802.0153,784.09158 c 0,-50 5,-93 10,-96 6,-4 10,28 10,89 0,57 -4,96 -10,96 -6,0 -10,-36 -10,-89 z"
       id="path48-8"
       style="fill:#0d6efd;fill-opacity:1" />
    <rect
       style="fill:#0d6efd;stroke-width:7.5;fill-opacity:1"
       id="rect266"
       width="4.8961425"
       height="29.376854"
       x="736.86945"
       y="-812.09198"
       transform="scale(1,-1)" />
  </g>
</svg>
